<?xml version="1.0" encoding="utf-8"?>
<!-- Generator: Adobe Illustrator 18.0.0, SVG Export Plug-In . SVG Version: 6.00 Build 0)  -->
<!DOCTYPE svg PUBLIC "-//W3C//DTD SVG 1.1//EN" "http://www.w3.org/Graphics/SVG/1.1/DTD/svg11.dtd">
<svg version="1.1" id="Layer_1" xmlns="http://www.w3.org/2000/svg" xmlns:xlink="http://www.w3.org/1999/xlink" x="0px" y="0px"
	 viewBox="747 450 426 180" enable-background="new 747 450 426 180" xml:space="preserve">
<g>
	<g>
		<path fill="#222222" d="M873.2,515.7v17.9h13.9v14.3h-13.9v22.6c0,7.6,1.8,11,7.7,11c2.4,0,4.4-0.2,5.7-0.5l0.1,14.7
			c-2.5,1-7.2,1.7-12.7,1.7c-6.3,0-11.5-2.2-14.6-5.4c-3.6-3.7-5.4-9.7-5.4-18.6v-25.6h-8.3v-14.3h8.3V520L873.2,515.7z"/>
		<path fill="#222222" d="M930,596.2l-1.1-6.3h-0.4c-4.1,5-10.5,7.7-17.9,7.7c-12.7,0-20.2-9.2-20.2-19.2
			c0-16.3,14.6-24.1,36.7-23.9v-0.9c0-3.3-1.8-8-11.4-8c-6.4,0-13.2,2.2-17.3,4.7l-3.6-12.5c4.4-2.4,12.9-5.5,24.3-5.5
			c20.9,0,27.5,12.3,27.5,27v21.8c0,6,0.2,11.8,0.9,15.2H930z M927.7,566.6c-10.2-0.1-18.2,2.3-18.2,9.9c0,5,3.3,7.4,7.7,7.4
			c4.9,0,8.8-3.2,10.1-7.2c0.2-1,0.4-2.2,0.4-3.3L927.7,566.6L927.7,566.6z"/>
		<path fill="#222222" d="M951.5,554.6c0-8.2-0.2-15.2-0.5-21h16.9l0.9,8.7h0.2c4.6-6.7,11.8-10.1,20.9-10.1c13.7,0,26,11.9,26,31.9
			c0,22.8-14.5,33.5-28.4,33.5c-7.6,0-13.4-3.1-16.3-7.2h-0.2v31.1h-19.4V554.6z M970.9,569.3c0,1.5,0.1,3,0.4,4.1
			c1.3,5.3,5.7,9.2,11.4,9.2c8.4,0,13.4-7,13.4-17.7c0-10-4.5-17.5-13.2-17.5c-5.5,0-10.4,4.1-11.6,9.9c-0.2,1-0.4,2.3-0.4,3.4
			L970.9,569.3L970.9,569.3z"/>
		<path fill="#222222" d="M1056.8,596.2l-1.1-6.3h-0.4c-4.1,5-10.5,7.7-17.9,7.7c-12.7,0-20.2-9.2-20.2-19.2
			c0-16.3,14.6-24.1,36.7-23.9v-0.9c0-3.3-1.8-8-11.4-8c-6.4,0-13.2,2.2-17.3,4.7l-3.6-12.5c4.4-2.4,12.9-5.5,24.3-5.5
			c20.9,0,27.5,12.3,27.5,27v21.8c0,6,0.2,11.8,0.9,15.2H1056.8z M1054.5,566.6c-10.2-0.1-18.2,2.3-18.2,9.9c0,5,3.3,7.4,7.7,7.4
			c4.9,0,8.8-3.2,10.1-7.2c0.2-1,0.4-2.2,0.4-3.3L1054.5,566.6L1054.5,566.6z"/>
	</g>
	<path fill="#6D4D7A" d="M1072.8,475.2c-0.9-8.7-3.9-12-37.5-15.6c-33.6-3.6-90.5,6.6-103.7,7.2c-13.2,0.6-59.4-6.6-71.7-1.8
		c-17.1,6.3-16.2,38.7-2.4,38.4c13.8-0.3,67.7-16.2,84.2-15.6c12.9,0.5,18.9,19.2,21.4,26.3c1.6-0.1,2.9-0.2,2.9-0.2
		s1.1-27.6,1.7-32.4c0.1-0.5,1-0.9,2.7-1.4l1.5,33.3h3.1l1-34.4c0.9-0.1,1.9-0.2,2.9-0.4l1.9,33.7h3.1l1-34.4
		c0.9-0.1,1.9-0.2,2.8-0.2l1.4,33.3h3.1l1-33.7c1-0.1,2.1-0.1,3.2-0.2l1.6,33.9h3.1l1-34.2c1.2-0.1,2.5-0.1,3.8-0.2l1.4,34.4h3.1
		l1.1-34.6c1,0,2-0.1,3-0.1l1,34.7h3.1l1.1-34.8c1,0,2,0,3,0l1.3,34.8h3.1l1.1-34.8c1.1,0,2.2,0,3.3,0l1.1,34.8h3.1l1.1-34.7
		c1,0,2,0.1,3,0.1l1.6,34h3.1l1-33.7c0.8,0.1,1.7,0.1,2.5,0.2l1.5,34h3.1l1-33.4c0.8,0.1,1.6,0.2,2.3,0.4l1.5,33.8h3.1l1-32.2
		c1.1,0.5,1.8,1.1,1.8,1.9c0.8,9,2.7,31.2,2.7,31.2h3.6C1070.7,512.7,1073.7,483.9,1072.8,475.2z M863.7,491c-3.2,0-5.8-2.6-5.9-5.9
		c0-3.2,2.6-5.9,5.9-5.9c3.2,0,5.9,2.6,5.9,5.9C869.6,488.4,866.9,491,863.7,491z"/>
</g>
</svg>
