<svg xmlns="http://www.w3.org/2000/svg" xmlns:xlink="http://www.w3.org/1999/xlink" version="1.1" id="Layer_1" x="0px" y="0px" viewBox="0 0 1012.3 745.6" enable-background="new 0 0 1012.3 745.6" xml:space="preserve"><g><g><path fill="#222222" class="tapa-logo-name" d="M188.7 283.4v65.4h50.9v52.3h-50.9v82.7c0 27.6 6.5 40.2 28 40.2c8.9 0 15.9-0.9 21-1.9l0.5 53.8 c-9.3 3.7-26.2 6.1-46.3 6.1c-22.9 0-42.1-7.9-53.3-19.6c-13.1-13.6-19.6-35.5-19.6-67.8v-93.5H88.7v-52.3H119v-49.5L188.7 283.4z "/><path fill="#222222" class="tapa-logo-name" d="M396.2 577.4l-4.2-22.9h-1.4c-15 18.2-38.3 28-65.4 28c-46.3 0-73.8-33.7-73.8-70.1 c0-59.4 53.3-87.9 134.1-87.4v-3.3c0-12.2-6.5-29.4-41.6-29.4c-23.4 0-48.1 7.9-63.1 17.3l-13.1-45.8 c15.9-8.9 47.2-20.1 88.8-20.1c76.2 0 100.5 44.9 100.5 98.6v79.5c0 22 0.9 43 3.3 55.6H396.2z M387.8 469.4 c-37.4-0.5-66.4 8.4-66.4 36c0 18.2 12.1 27.1 28 27.1c17.8 0 32.2-11.7 36.9-26.2c0.9-3.7 1.4-7.9 1.4-12.2V469.4z"/><path fill="#222222" class="tapa-logo-name" d="M474.8 425.5c0-29.9-0.9-55.6-1.9-76.6h61.7l3.3 31.8h0.9c16.8-24.3 43-36.9 76.2-36.9 c50 0 94.9 43.5 94.9 116.4c0 83.2-52.8 122.5-103.8 122.5c-27.6 0-49.1-11.2-59.4-26.2h-0.9v113.6h-71V425.5z M545.9 479.2 c0 5.6 0.5 10.8 1.4 15c4.7 19.2 21 33.7 41.6 33.7c30.8 0 49.1-25.7 49.1-64.5c0-36.5-16.4-64-48.1-64c-20.1 0-37.9 15-42.5 36 c-0.9 3.7-1.4 8.4-1.4 12.6V479.2z"/><path fill="#222222" class="tapa-logo-name" d="M859.6 577.4l-4.2-22.9H854c-15 18.2-38.3 28-65.4 28c-46.3 0-73.8-33.7-73.8-70.1 c0-59.4 53.3-87.9 134.1-87.4v-3.3c0-12.2-6.5-29.4-41.6-29.4c-23.4 0-48.1 7.9-63.1 17.3l-13.1-45.8 c15.9-8.9 47.2-20.1 88.8-20.1c76.2 0 100.5 44.9 100.5 98.6v79.5c0 22 0.9 43 3.3 55.6H859.6z M851.2 469.4 c-37.4-0.5-66.4 8.4-66.4 36c0 18.2 12.1 27.1 28 27.1c17.8 0 32.2-11.7 36.9-26.2c0.9-3.7 1.4-7.9 1.4-12.2V469.4z"/></g><path fill="#6D4D7A" class="tapa-logo-symbol" d="M918 135.5c-3.3-31.8-14.2-43.8-136.9-56.9c-122.7-13.2-330.7 24-378.9 26.2C354 107 185.3 80.7 140.4 98.2 c-62.4 23-59.1 141.3-8.8 140.2c50.4-1.1 247.5-59.1 307.7-56.9c47.1 1.7 69.1 70.3 78.3 96.1c5.7-0.3 10.7-0.8 10.7-0.8 s4.1-100.8 6.3-118.3c0.2-1.7 3.7-3.4 9.9-5l5.3 121.8h11.5l3.8-125.7c3.3-0.5 6.8-0.9 10.5-1.4l7 123.1h11.5l3.8-125.6 c3.4-0.3 6.9-0.6 10.4-0.9l5.2 121.6l11.5 0l3.8-123.1c3.8-0.3 7.7-0.5 11.7-0.7l5.9 123.9h11.5l3.8-125.1 c4.5-0.2 9.2-0.4 13.8-0.6l5.2 125.6h11.5l3.9-126.4c3.7-0.1 7.4-0.2 11.1-0.3l3.8 126.7h11.5l3.9-127c3.7 0 7.4 0 11.1-0.1 l4.9 127.1h11.5l3.9-127.2c4.1 0 8.2 0.1 12.2 0.1l4.2 127h11.5l3.9-126.6c3.7 0.1 7.2 0.3 10.8 0.4l5.9 124.2l11.5 0l3.8-123 c3.1 0.2 6.2 0.5 9.1 0.7l5.5 124.2l11.5 0l3.7-121.9c3 0.4 5.9 0.9 8.5 1.4l5.5 123.5l11.5 0l3.6-117.6c4.1 2 6.4 4.2 6.6 6.8 c2.8 32.9 9.8 113.9 9.8 113.9h13.1C910.3 272.4 921.2 167.2 918 135.5z M154.1 193.3c-11.8 0-21.3-9.6-21.4-21.4 c0-11.8 9.6-21.4 21.4-21.4c11.8 0 21.4 9.6 21.4 21.4C175.5 183.8 165.9 193.3 154.1 193.3z"/></g></svg>