<?xml version="1.0" encoding="utf-8"?>
<!-- Generator: Adobe Illustrator 18.0.0, SVG Export Plug-In . SVG Version: 6.00 Build 0)  -->
<!DOCTYPE svg PUBLIC "-//W3C//DTD SVG 1.1//EN" "http://www.w3.org/Graphics/SVG/1.1/DTD/svg11.dtd">
<svg version="1.1" id="Layer_1" xmlns="http://www.w3.org/2000/svg" xmlns:xlink="http://www.w3.org/1999/xlink" x="0px" y="0px"
	 viewBox="0 0 472.4 83.1" enable-background="new 0 0 472.4 83.1" xml:space="preserve">
<g>
	<g>
		<g>
			<g>
				<g>
					<rect x="8.1" y="71.6" fill="#F26722" width="160.4" height="11.5"/>
					<g>
						<path fill="#2B4D80" d="M84.5,58.6c2.3-5.1,3.4-10.8,3.4-17.1c0-6.3-1.1-12-3.4-17.1c-2.3-5.1-5.4-9.5-9.4-13.1
							c-4-3.6-8.6-6.4-14-8.4C55.8,1,50.1,0,44,0c-6.1,0-11.8,1-17.2,2.9s-10,4.8-14,8.4c-4,3.6-7.1,8-9.4,13.1
							C1.1,29.5,0,35.2,0,41.5c0,6.3,1.1,12,3.4,17.1c1.3,3,3,5.7,4.9,8.2h71.3C81.6,64.4,83.2,61.6,84.5,58.6z M58.4,56
							c-3.4,3.7-8.2,5.5-14.4,5.5S33,59.7,29.6,56c-3.4-3.7-5.1-8.5-5.1-14.5c0-6,1.7-10.8,5.1-14.5c3.4-3.7,8.2-5.5,14.4-5.5
							s11,1.8,14.4,5.5c3.4,3.7,5.1,8.5,5.1,14.5C63.5,47.5,61.8,52.3,58.4,56z"/>
						<path fill="#2B4D80" d="M227.3,27.5c-1.2-1.7-2.9-3.2-5-4.3c-2.2-1.1-4.5-1.7-7-1.7c-6.2,0-11,1.8-14.4,5.5
							c-3.4,3.7-5.1,8.5-5.1,14.5c0,6,1.7,10.8,5.1,14.5c3.4,3.7,8.2,5.5,14.4,5.5c2.7,0,5.1-0.6,7-1.8c2-1.2,3.6-2.6,5-4.2
							l16.1,16.9c-3.8,3.9-8.3,6.7-13.4,8.2c-5.2,1.6-10.1,2.4-14.7,2.4c-6.1,0-11.8-1-17.2-2.9c-5.4-2-10-4.7-14-8.4
							c-4-3.6-7.1-8-9.4-13.1c-2.3-5.1-3.4-10.8-3.4-17.1c0-6.3,1.1-12,3.4-17.1c2.3-5.1,5.4-9.5,9.4-13.1c4-3.6,8.6-6.4,14-8.4
							c5.4-2,11.1-2.9,17.2-2.9c4.7,0,9.6,0.8,14.7,2.4c5.2,1.6,9.6,4.3,13.4,8.2L227.3,27.5z"/>
						<path fill="#2B4D80" d="M371.7,25.3c-3.6-4.5-8.3-6.7-14.2-6.7c-2.1,0-4.1,0.5-6,1.5c-2,1-2.9,2.7-2.9,5.1c0,2,1,3.4,3,4.3
							c2,0.9,4.6,1.7,7.7,2.4c3.1,0.7,6.4,1.5,9.9,2.3c3.5,0.8,6.8,2.1,9.9,3.8c3.1,1.7,5.6,4.1,7.7,7.1c2,3,3,7,3,12
							c0,5.1-1.1,9.3-3.3,12.6c-2.2,3.3-5.1,6-8.6,8c-3.5,2-7.4,3.4-11.7,4.2c-4.3,0.8-8.6,1.2-12.9,1.2c-5.5,0-11.1-0.8-16.8-2.4
							c-5.6-1.6-10.4-4.4-14.3-8.4L337,55.9c2.3,2.8,4.8,5,7.6,6.4c2.8,1.5,6,2.2,9.7,2.2c2.8,0,5.4-0.4,7.7-1.2
							c2.3-0.8,3.4-2.3,3.4-4.5c0-2.1-1-3.6-3-4.6c-2-1-4.6-1.9-7.7-2.6c-3.1-0.7-6.4-1.5-9.9-2.3c-3.5-0.8-6.8-2-9.9-3.7
							c-3.1-1.6-5.6-3.9-7.7-6.9c-2-3-3-7-3-12c0-4.7,0.9-8.7,2.9-12.1c1.9-3.4,4.4-6.1,7.5-8.3c3.1-2.2,6.7-3.8,10.7-4.8
							c4-1,8.1-1.5,12.2-1.5c5.2,0,10.5,0.8,15.8,2.3c5.3,1.5,9.8,4.2,13.5,8.1L371.7,25.3z"/>
						<path fill="#2B4D80" d="M468.7,67.4c-3.9,5-8.9,8.9-14.8,11.6c-6,2.7-12.2,4.1-18.6,4.1c-6.1,0-11.8-1-17.2-2.9
							c-5.4-2-10-4.7-14-8.4c-4-3.6-7.1-8-9.4-13.1c-2.3-5.1-3.4-10.8-3.4-17.1c0-6.3,1.1-12,3.4-17.1c2.3-5.1,5.4-9.5,9.4-13.1
							c4-3.6,8.6-6.4,14-8.4c5.4-2,11.1-2.9,17.2-2.9c5.6,0,10.8,1,15.4,2.9c4.6,2,8.5,4.8,11.7,8.4c3.2,3.6,5.7,8,7.4,13.1
							c1.7,5.1,2.6,10.8,2.6,17.1v7.7h-56.7c1,4.7,3.1,8.4,6.4,11.2c3.3,2.8,7.3,4.2,12.1,4.2c4,0,7.4-0.9,10.2-2.7
							c2.8-1.8,5.2-4.1,7.2-6.9L468.7,67.4z M448,32.6c0.1-4.1-1.3-7.7-4.1-10.6c-2.8-2.9-6.5-4.4-10.9-4.4c-2.7,0-5.1,0.4-7.2,1.3
							c-2.1,0.9-3.8,2-5.3,3.3c-1.5,1.4-2.6,2.9-3.4,4.7c-0.8,1.8-1.3,3.7-1.4,5.6H448z"/>
						<path fill="#2B4D80" d="M167.3,22.6c-0.8-4.6-2.2-8.5-4.4-11.9c-2.1-3.4-5.2-6-9-7.9C150.1,1,145,0,138.8,0
							c-0.2,0-0.4,0-0.7,0c0,0-0.1,0-0.1,0h-23H92.3h-1.1v1.1v13.8v52h24.8V41.7c0-2.6,0.2-5.1,0.5-7.5c0.3-2.4,1-4.5,2.1-6.4
							c1-1.9,2.6-3.4,4.5-4.6c2-1.1,4.6-1.7,7.8-1.7c3.2,0,5.6,0.7,7.4,2c1.7,1.3,3,3,3.8,5.1c0.8,2.1,1.3,4.3,1.5,6.8
							c0.2,2.4,0.2,4.8,0.2,7.1v24.5h24.8V37.5C168.5,32.1,168.1,27.2,167.3,22.6z"/>
						<path fill="#2B4D80" d="M316.8,23.4c-1.1-5-3-9.3-5.8-12.8c-2.8-3.5-6.5-6.1-11.1-7.9C295.4,0.9,289.5,0,282.3,0
							c-6.5,0-12.8,1.1-18.9,3.2c-6.1,2.1-11.4,5.3-16,9.5l13,13.4c2.6-2.9,5.6-5.2,8.9-6.9c3.3-1.7,7-2.5,11-2.5
							c4.2,0,7.9,1.3,11,3.8c3.1,2.6,4.6,6,4.6,10.3c-3.4,0-7,0.1-11,0.2c-4,0.1-7.9,0.4-11.9,1c-4,0.5-7.8,1.4-11.5,2.5
							c-3.7,1.1-7,2.7-9.9,4.8c-2.9,2.1-5.2,4.7-6.8,7.8c-1.7,3.2-2.5,7-2.5,11.6c0,4,0.8,7.5,2.3,10.6c1.5,3,3.6,5.6,6.2,7.7
							c2.6,2.1,5.6,3.6,9,4.6c3.4,1,7,1.5,10.7,1.5H296h12.3h10.1V40.9C318.5,34.3,317.9,28.4,316.8,23.4z M269.6,64.3
							c-2.5-1.4-3.7-3.6-3.7-6.5c0-2.7,0.9-4.8,2.7-6.4c1.8-1.5,4-2.7,6.5-3.4c2.6-0.8,5.2-1.2,8-1.4c2.8-0.2,5.1-0.2,6.9-0.2h6v5.2
							c0,2.5-0.5,4.7-1.5,6.5c-1,1.8-2.4,3.4-4.2,4.6c-1.7,1.2-3.7,2.1-5.9,2.8c-2.2,0.7-4.5,1-6.9,1
							C274.7,66.5,272.1,65.8,269.6,64.3z"/>
					</g>
				</g>
			</g>
		</g>
	</g>
	<rect x="-47.2" y="-47.2" fill="none" width="566.9" height="177.6"/>
</g>
</svg>
